<svg xmlns="http://www.w3.org/2000/svg" viewBox="0 0 198 122" role="img" aria-label="SkyRoute 天途 logo">
  <rect width="198" height="122" rx="0" fill="#D5F26D"/>
  <path d="M 138 66 L 134 66 L 134 67 L 132 69 L 132 70 L 130 72 L 130 73 L 124 79 L 125 79 L 127 81 L 128 81 L 133 76 L 133 75 L 137 70 L 137 69 L 138 68 Z M 161 66 L 160 67 L 160 68 L 165 73 L 165 74 L 167 76 L 167 77 L 169 79 L 169 80 L 170 81 L 171 80 L 172 80 L 173 79 L 173 78 L 172 77 L 172 76 L 170 74 L 170 73 L 167 70 L 167 69 L 163 65 L 162 66 Z M 105 52 L 105 56 L 114 56 L 115 57 L 115 82 L 114 83 L 113 83 L 111 85 L 110 85 L 104 91 L 106 93 L 106 94 L 107 95 L 116 86 L 120 86 L 125 90 L 126 90 L 129 92 L 131 92 L 132 93 L 134 93 L 135 94 L 174 94 L 174 93 L 175 92 L 175 90 L 176 89 L 170 89 L 169 90 L 136 90 L 135 89 L 132 89 L 131 88 L 129 88 L 127 86 L 124 85 L 122 83 L 121 83 L 120 82 L 120 52 Z M 29 30 L 29 35 L 56 35 L 57 36 L 57 53 L 56 54 L 26 54 L 26 59 L 54 59 L 55 60 L 55 62 L 54 63 L 54 65 L 53 66 L 53 67 L 52 68 L 51 71 L 48 74 L 48 75 L 41 82 L 40 82 L 37 85 L 36 85 L 35 86 L 34 86 L 32 88 L 31 88 L 30 89 L 29 89 L 28 90 L 25 91 L 25 92 L 28 95 L 29 95 L 30 94 L 31 94 L 32 93 L 33 93 L 34 92 L 37 91 L 39 89 L 40 89 L 42 87 L 43 87 L 48 82 L 49 82 L 50 81 L 50 80 L 54 76 L 54 75 L 56 73 L 56 72 L 58 69 L 58 67 L 60 65 L 61 65 L 62 66 L 62 68 L 63 69 L 63 70 L 65 72 L 66 75 L 69 78 L 69 79 L 78 88 L 79 88 L 81 90 L 82 90 L 83 91 L 84 91 L 85 92 L 86 92 L 91 95 L 93 95 L 93 94 L 96 91 L 95 91 L 94 90 L 92 90 L 91 89 L 90 89 L 89 88 L 86 87 L 81 83 L 80 83 L 71 74 L 71 73 L 67 68 L 67 67 L 65 64 L 65 62 L 64 61 L 64 60 L 65 59 L 94 59 L 94 54 L 63 54 L 62 53 L 62 36 L 63 35 L 90 35 L 91 34 L 91 30 Z M 108 29 L 108 30 L 109 31 L 110 31 L 112 33 L 113 33 L 118 38 L 119 38 L 120 39 L 123 36 L 119 32 L 118 32 L 116 30 L 115 30 L 113 28 L 112 28 L 111 27 L 110 27 Z M 149 23 L 148 23 L 148 24 L 145 27 L 145 28 L 138 35 L 137 35 L 134 38 L 133 38 L 128 42 L 127 42 L 126 43 L 123 44 L 123 45 L 126 48 L 127 47 L 130 46 L 132 44 L 135 43 L 136 44 L 136 48 L 146 48 L 147 49 L 147 56 L 146 57 L 126 57 L 126 60 L 127 61 L 146 61 L 147 62 L 147 80 L 146 81 L 139 81 L 139 83 L 140 84 L 140 85 L 148 85 L 151 83 L 151 82 L 152 81 L 152 62 L 153 61 L 173 61 L 174 60 L 174 57 L 153 57 L 152 56 L 152 49 L 153 48 L 163 48 L 164 47 L 164 44 L 165 43 L 166 43 L 168 45 L 169 45 L 170 46 L 172 46 L 173 47 L 174 46 L 174 45 L 176 43 L 175 42 L 173 42 L 172 41 L 171 41 L 170 40 L 169 40 L 168 39 L 165 38 L 163 36 L 162 36 L 160 34 L 159 34 L 152 27 L 152 25 Z M 135 42 L 136 41 L 137 41 L 140 38 L 141 38 L 148 31 L 150 31 L 155 36 L 156 36 L 160 40 L 161 40 L 163 42 L 163 43 L 162 44 L 136 44 L 135 43 Z" fill="#06110E" fill-rule="evenodd" clip-rule="evenodd"/>
</svg>